# xmcd CD database file
#
# Track frame offsets:
#	150
#	32217
#	48487
#	65575
#	81037
#	102367
#	120752
#	140995
#	158192
#	183557
#	203925
#	226907
#	245930
#
# Disc length: 3571 seconds
#
# Revision: 0
# Processed by: cddbd v1.4PL0 Copyright (c) Steve Scherf et al.
# Submitted via: CDex 1.40Beta8
#
DISCID=bb0df10d
DTITLE=Various Artist - Blues for a Rainy Day
DYEAR=1999
DGENRE=Blues
TTITLE0=Long Distance Call (Muddy Waters)
TTITLE1=Bad Luck Shadow (Johnny Otis)
TTITLE2=Don't Forget to Close the Door (Pee Wee Crayton)
TTITLE3=Another Night to Cry (Lonnie Johnson)
TTITLE4=Treat Me So Low Down (T-Bone Walker)
TTITLE5=Driftin' Blues (Charles Brown)
TTITLE6=Nobody Knows You When You're Down and Out (Jimmy Witherspoon)
TTITLE7=Darling Depend On Me (Junior Parker and Jimmy McGriff)
TTITLE8=Blues for a Broken Down Funky Old Bus (Jimmy McGriff)
TTITLE9=Good Looking Woman (Muddy Waters)
TTITLE10=I Had A Dream (Eddie "Cleanhead" Vinson)
TTITLE11=Woman (The T-Bone Walker Quintet)
TTITLE12=The Blues Train to Georgia (Jimmy McGriff)
EXTD=YEAR: 1999 ID3G: 0
EXTT0=
EXTT1=
EXTT2=
EXTT3=
EXTT4=
EXTT5=
EXTT6=
EXTT7=
EXTT8=
EXTT9=
EXTT10=
EXTT11=
EXTT12=
PLAYORDER=
